<?xml version="1.0" encoding="UTF-8"?><svg id="Layer_1" xmlns="http://www.w3.org/2000/svg" xmlns:xlink="http://www.w3.org/1999/xlink" viewBox="0 0 576.34 120.15"><defs><style>.cls-1{fill:#222;}.cls-2{fill:none;stroke:url(#linear-gradient);stroke-linecap:round;stroke-miterlimit:10;stroke-width:.47px;}</style><linearGradient id="linear-gradient" x1="144.25" y1="20.38" x2="576.34" y2="20.38" gradientTransform="translate(0 90.33) scale(1 -1)" gradientUnits="userSpaceOnUse"><stop offset="0" stop-color="#c99a44"/><stop offset=".51" stop-color="#e4c06a"/><stop offset="1" stop-color="#f0e1b2"/></linearGradient></defs><path d="m125,0v1.72h-46.34v51.49h41.61v1.72h-41.61v63.51h50.87v1.72H61.57v-37.75H22.02L2.46,120.15H0L61.54,0h63.46Zm-63.43,80.68V6.2L22.85,80.68s38.72,0,38.72,0Z"/><g><line class="cls-2" x1="144.48" y1="69.95" x2="576.11" y2="69.95"/><g><path d="m202.81,4.71v.76h-20.6v22.89h18.5v.76h-18.5v28.23h22.61v.76h-30.21v-16.78h-17.58l-8.69,16.78h-1.1l27.36-53.41h28.21Zm-28.2,35.86V7.46l-17.21,33.11s17.21,0,17.21,0Z"/><path d="m211.68,5.33c5.9-.41,11.12-.61,15.64-.61,12.57,0,18.85,4.19,18.85,12.59,0,3.56-.86,6.74-2.6,9.54-1.73,2.8-4.7,4.66-8.93,5.58l15.25,25.71h-7.09l-14.96-25.26h-9.85v25.26h-6.34V5.33h.01Zm15.64.15c-2.95,0-6.05.18-9.3.53v26.1h11.29c7.17-.31,10.76-5.19,10.76-14.65,0-3.86-1.07-6.83-3.21-8.89-2.14-2.06-5.32-3.09-9.54-3.09h-.01Z"/><path d="m253.89,5.47v-.76h13.58v.76h-3.74v51.88h3.74v.76h-13.58v-.76h3.51V5.47h-3.51Z"/><path d="m273.11,58.13h-.92l22.82-53.42.84-.38,19.23,53.8h-6.48l-5.95-16.78h-22.28l-7.25,16.78h-.01Zm19.54-45.17l-11.98,27.62h21.75s-9.77-27.62-9.77-27.62Z"/><path class="cls-1" d="m369.44,4.71c.96.96,1.45,2.21,1.45,3.74,0,1.27-.28,2.57-.84,3.89l-19.54,45.78-.84.38-19.22-53.78h6.48l15.95,45.17,16.25-37.55c.56-1.27.84-2.6.84-3.97s-.38-2.44-1.15-3.21l.61-.45h0Z"/><path class="cls-1" d="m388.4,58.43c-5.37,0-9.72-1.53-13.09-4.58-3.36-3.05-5.03-7.75-5.03-14.12s1.75-11.29,5.22-14.8c3.48-3.51,7.91-5.27,13.27-5.27s9.72,1.53,13.09,4.58c3.35,3.05,5.03,7.75,5.03,14.12s-1.75,11.29-5.22,14.8c-3.48,3.51-7.91,5.27-13.27,5.27h0Zm.5-38.15c-3.87,0-7.07,1.71-9.61,5.15-2.54,3.43-3.82,8.22-3.82,14.35s1.17,10.68,3.51,13.62c2.33,2.95,5.44,4.42,9.31,4.42s7.07-1.71,9.61-5.15c2.54-3.43,3.82-8.22,3.82-14.35s-1.17-10.66-3.51-13.62c-2.35-2.95-5.44-4.42-9.31-4.42Z"/><path class="cls-1" d="m416.87,71.78c-1.63,3.61-3.64,5.42-6.03,5.42-1.07,0-2.31-.18-3.74-.53v-.61c1.17.31,2.21.45,3.13.45,2.59,0,4.58-1.58,5.95-4.73l6.41-13.66h-.08l-14.19-38.15h5.34l11.83,31.81,11.67-24.18c.61-1.07.92-2.33.92-3.82s-.41-2.6-1.22-3.36l.45-.45c.2.1.46.41.8.92s.53.96.61,1.37c.08.41.11.79.11,1.14,0,1.37-.31,2.78-.92,4.19l-14.65,30.52-6.41,13.66h.01Z"/><path class="cls-1" d="m472.41,58.13c-3.46,0-5.83-.66-7.09-1.98-1.17-1.12-1.76-2.09-1.76-2.9v-1.6c-2.49,4.52-6.48,6.79-11.98,6.79-6.41,0-10.04-2.9-10.91-8.69-.1-.61-.15-1.23-.15-1.87s.1-1.34.31-2.1c.2-.76.79-1.6,1.76-2.52,1.94-1.84,6.18-2.95,12.74-3.36,1.63-.15,3.13-.23,4.5-.23s2.62.06,3.74.15v-12.67c-.1-.06-.1-.29,0-.73.1-.43.01-1-.27-1.68s-.65-1.36-1.11-2.02-1.27-1.23-2.44-1.71c-1.17-.49-2.7-.73-4.58-.73s-4.08.34-6.6,1.03-4.36,1.36-5.53,2.02l-.31-.53c4.52-2.08,9.13-3.13,13.81-3.13,5.24,0,8.69.94,10.38,2.82,1.33,1.47,1.98,3.03,1.98,4.66v25.56c0,1.47.29,2.61.87,3.4s1.18,1.21,1.79,1.26l.84.15h2.37v.61h-2.37.01Zm-19.61-.3c2.7,0,5.12-.93,7.29-2.79s3.32-3.65,3.47-5.38v-9.24c-1.37-.1-2.77-.15-4.16-.15s-2.79.08-4.16.23c-3.86.45-6.38,1.33-7.56,2.6-1.17,1.27-1.76,3.03-1.76,5.27,0,.41.02.86.08,1.37.45,5.39,2.72,8.09,6.79,8.09h0Z"/><path class="cls-1" d="m476.46,40.42c0-6.62,1.6-11.73,4.81-15.33s8.01-5.42,14.43-5.42c4.73,0,9.54.84,14.43,2.52v36.85c-.06,12.1-5.34,18.16-15.87,18.16-5.8,0-10.76-1.88-14.88-5.64l.53-.45c4.37,3.66,9.16,5.5,14.35,5.5,7.02,0,10.53-5.85,10.53-17.54v-7.56c-.96,1.78-2.57,3.36-4.81,4.73-2.23,1.37-4.88,2.06-7.93,2.06-10.38-.25-15.56-6.21-15.56-17.85v-.02Zm15.63,17.25c3.41,0,6.33-.92,8.77-2.74,2.44-1.84,3.74-3.64,3.89-5.42v-26.94c-3.66-1.53-6.77-2.29-9.31-2.29-4.52,0-7.93,1.77-10.22,5.3-2.29,3.54-3.43,8.48-3.43,14.85,0,11.49,3.43,17.25,10.3,17.25h0Z"/><path class="cls-1" d="m518.88,39.51c0,6.31,1.11,10.94,3.32,13.88,2.21,2.95,5.12,4.42,8.74,4.42,5.09,0,9.61-.76,13.58-2.29l.23.53c-4.07,1.58-8.66,2.37-13.77,2.37s-9.27-1.53-12.48-4.58c-3.21-3.05-4.81-7.75-4.81-14.12s1.68-11.29,5.03-14.8c3.35-3.51,7.63-5.27,12.82-5.27,4.17,0,7.68,1.25,10.53,3.74,2.85,2.49,4.27,6.18,4.27,11.06v.76h-27.24c-.15,1.37-.23,2.8-.23,4.27h0Zm19.46-15.71c-1.84-2.33-4.19-3.51-7.09-3.51s-5.49,1.27-7.74,3.82c-2.27,2.54-3.69,6.05-4.31,10.53h21.98c-.06-4.88-1-8.5-2.82-10.83h-.01Z"/><path class="cls-1" d="m571.91,22.64c-.82-.66-2.12-1.22-3.93-1.68-1.8-.45-3.16-.69-4.08-.69h-1.6c-2.74.06-4.73.75-5.95,2.1-1.22,1.35-1.84,2.87-1.84,4.54s.53,3.09,1.6,4.24c1.06,1.14,2.4,2.04,4,2.67,1.6.64,3.33,1.36,5.19,2.18s3.58,1.64,5.19,2.48,2.94,2.06,4,3.66c1.07,1.6,1.6,3.6,1.6,5.98s-.84,4.42-2.52,6.11-3.55,2.8-5.61,3.36c-2.06.55-4.29.84-6.68.84-5.19,0-9.08-1.15-11.67-3.43l.45-.45c1.02.96,2.53,1.76,4.54,2.37s3.96.92,5.84.92c3,0,5.48-.83,7.43-2.48s2.94-3.72,2.94-6.18-.74-4.45-2.21-5.95-3.27-2.67-5.38-3.51c-2.11-.84-4.24-1.68-6.37-2.52-2.13-.84-3.94-2.01-5.42-3.51-1.47-1.5-2.21-3.24-2.21-5.23s.45-3.6,1.37-4.85,2.13-2.12,3.66-2.63c2.59-.86,5.19-1.29,7.79-1.29,4.37,0,7.79.82,10.22,2.44l-.38.53h.01Z"/></g><g><path d="m210.98,115.64v-31.1h1.24l14.66,25.46h-.67l14.57-25.46h1.24l.04,31.1h-1.47l-.04-28.88h.49l-14.13,24.57h-.8l-14.22-24.57h.53v28.88h-1.47Z"/><path d="m257.46,115.64v-31.1h20.4v1.38h-18.88v28.35h19.51v1.38h-21.02Zm1.24-15.11v-1.38h17.15v1.38h-17.15Z"/><path d="m299.01,115.82c-2.28,0-4.44-.41-6.47-1.22-2.03-.81-3.58-1.84-4.64-3.09l.8-1.07c1.01,1.13,2.44,2.08,4.29,2.87,1.85.79,3.84,1.18,5.98,1.18s3.94-.3,5.33-.89c1.39-.59,2.42-1.38,3.09-2.38s1-2.1,1-3.31c0-1.42-.36-2.56-1.07-3.42-.71-.86-1.65-1.54-2.82-2.04-1.17-.5-2.44-.92-3.82-1.24-1.38-.33-2.77-.67-4.18-1.04-1.41-.37-2.7-.84-3.87-1.42-1.17-.58-2.1-1.38-2.8-2.4-.7-1.02-1.04-2.35-1.04-3.98,0-1.39.37-2.7,1.11-3.91.74-1.21,1.9-2.2,3.47-2.95,1.57-.76,3.58-1.13,6.04-1.13,1.69,0,3.35.26,5,.78s3.04,1.21,4.2,2.07l-.67,1.2c-1.24-.92-2.62-1.6-4.13-2.04s-2.96-.67-4.35-.67c-2.07,0-3.8.3-5.18.91-1.38.61-2.39,1.42-3.04,2.42-.65,1.01-.98,2.12-.98,3.33,0,1.45.36,2.61,1.07,3.47s1.65,1.54,2.82,2.04c1.17.5,2.45.92,3.84,1.24,1.39.33,2.78.67,4.18,1.04,1.39.37,2.67.85,3.84,1.44,1.17.59,2.1,1.38,2.8,2.38.7.99,1.04,2.29,1.04,3.89,0,1.39-.38,2.7-1.13,3.91-.76,1.22-1.94,2.19-3.55,2.93-1.61.74-3.67,1.11-6.15,1.11Z"/><path d="m329.84,115.82c-2.28,0-4.44-.41-6.47-1.22-2.03-.81-3.58-1.84-4.64-3.09l.8-1.07c1.01,1.13,2.44,2.08,4.29,2.87,1.85.79,3.84,1.18,5.98,1.18s3.94-.3,5.33-.89c1.39-.59,2.42-1.38,3.09-2.38s1-2.1,1-3.31c0-1.42-.36-2.56-1.07-3.42-.71-.86-1.65-1.54-2.82-2.04-1.17-.5-2.44-.92-3.82-1.24-1.38-.33-2.77-.67-4.18-1.04-1.41-.37-2.7-.84-3.87-1.42-1.17-.58-2.1-1.38-2.8-2.4-.7-1.02-1.04-2.35-1.04-3.98,0-1.39.37-2.7,1.11-3.91.74-1.21,1.9-2.2,3.47-2.95,1.57-.76,3.58-1.13,6.04-1.13,1.69,0,3.35.26,5,.78s3.04,1.21,4.2,2.07l-.67,1.2c-1.24-.92-2.62-1.6-4.13-2.04s-2.96-.67-4.35-.67c-2.07,0-3.8.3-5.18.91-1.38.61-2.39,1.42-3.04,2.42-.65,1.01-.98,2.12-.98,3.33,0,1.45.36,2.61,1.07,3.47s1.65,1.54,2.82,2.04c1.17.5,2.45.92,3.84,1.24,1.39.33,2.78.67,4.18,1.04,1.39.37,2.67.85,3.84,1.44,1.17.59,2.1,1.38,2.8,2.38.7.99,1.04,2.29,1.04,3.89,0,1.39-.38,2.7-1.13,3.91-.76,1.22-1.94,2.19-3.55,2.93-1.61.74-3.67,1.11-6.15,1.11Z"/><path d="m352.82,115.64v-31.1h20.4v1.38h-18.88v28.35h19.51v1.38h-21.02Zm1.24-15.11v-1.38h17.15v1.38h-17.15Z"/><path d="m386.5,115.64v-31.1h1.24l22.84,29.33h-.76v-29.33h1.51v31.1h-1.24l-22.84-29.33h.75v29.33h-1.51Z"/><path d="m439.73,115.82c-2.31,0-4.45-.39-6.42-1.18-1.97-.78-3.69-1.89-5.15-3.31-1.47-1.42-2.6-3.09-3.4-5-.8-1.91-1.2-3.99-1.2-6.24s.4-4.33,1.2-6.24c.8-1.91,1.93-3.58,3.4-5,1.47-1.42,3.18-2.53,5.15-3.31,1.97-.78,4.11-1.18,6.42-1.18,2.16,0,4.19.34,6.09,1.02,1.89.68,3.51,1.7,4.84,3.07l-.89,1.02c-1.42-1.36-2.96-2.33-4.62-2.89-1.66-.56-3.45-.84-5.38-.84-2.1,0-4.05.36-5.84,1.09-1.79.73-3.35,1.74-4.69,3.04-1.33,1.3-2.36,2.82-3.09,4.55-.73,1.73-1.09,3.62-1.09,5.67s.36,3.93,1.09,5.67c.73,1.73,1.76,3.25,3.09,4.55s2.89,2.32,4.69,3.04c1.79.73,3.74,1.09,5.84,1.09,1.9,0,3.7-.29,5.4-.87,1.7-.58,3.22-1.53,4.55-2.87l.89,1.11c-1.36,1.33-2.99,2.33-4.89,3-1.9.67-3.9,1-6,1Zm10.89-4l-1.42-.18v-11.33h1.42v11.51Z"/><path d="m465.1,115.64v-31.1h20.4v1.38h-18.88v28.35h19.51v1.38h-21.02Zm1.24-15.11v-1.38h17.15v1.38h-17.15Z"/><path d="m498.78,115.64v-31.1h10.8c3.88,0,6.91.9,9.09,2.71,2.18,1.81,3.27,4.34,3.27,7.6,0,2.16-.49,4.01-1.47,5.55-.98,1.54-2.39,2.73-4.24,3.55-1.85.83-4.07,1.24-6.64,1.24h-9.95l.67-.71v11.15h-1.51Zm1.51-11.15l-.67-.67h10.04c3.5,0,6.17-.79,8.02-2.36,1.85-1.57,2.78-3.78,2.78-6.62s-.93-5.04-2.78-6.6c-1.85-1.56-4.53-2.33-8.02-2.33h-10.04l.67-.71v19.28Zm20.35,11.15l-8.09-11.29h1.73l8.13,11.29h-1.78Z"/></g></g></svg>