<svg xmlns="http://www.w3.org/2000/svg" version="1.1" xmlns:xlink="http://www.w3.org/1999/xlink" width="1000" height="1000"><metadata><rdf:RDF xmlns:rdf="http://www.w3.org/1999/02/22-rdf-syntax-ns#" xmlns:dc="http://purl.org/dc/elements/1.1/"><rdf:Description><dc:creator>RealFaviconGenerator</dc:creator><dc:source>https://realfavicongenerator.net</dc:source></rdf:Description></rdf:RDF></metadata><g clip-path="url(#SvgjsClipPath1026)"><rect width="1000" height="1000" fill="#ffffff"></rect><g transform="matrix(0.8,0,0,0.8,100,100.00399999999996)"><svg xmlns="http://www.w3.org/2000/svg" id="svg2" viewBox="0 0 1000 999.99" width="1000" height="999.99"><defs><style>.cls-1{fill:#9a6f14;}</style><clipPath id="SvgjsClipPath1026"><rect width="1000" height="1000" x="0" y="0" rx="350" ry="350"></rect></clipPath></defs><polygon class="cls-1" points="484.89 521.62 484.89 311.38 378.12 521.62 484.89 521.62"></polygon><path class="cls-1" d="m500,0C218.34,0,0,206.33,0,485c0,145.77,59.73,271.72,157.02,358.73,8.17,7.28,13.1,17.54,13.44,28.49l2.72,88.95c.87,28.37,30.18,46.84,56.13,35.37l99.25-43.81c8.41-3.71,17.83-4.4,26.7-1.95,45.62,12.54,94.16,19.21,144.74,19.21,281.66,0,500-206.31,500-484.99S781.66,0,500,0Zm259.24,316.53h-163.71v92.58h144.3v83.58h-144.3v101.58h163.71v86.79h-274.36v-75.86h-149.47l-38.82,75.86h-119.71l232.3-451.33h350.06v86.79Z"></path></svg></g></g></svg>